<svg xmlns="http://www.w3.org/2000/svg" width="40" height="41" fill="none" viewBox="0 0 40 41"><rect width="39" height="39" x=".5" y="1.368" stroke="#D0E4F1" rx="3.5"/><mask id="a" width="25" height="24" x="8" y="9" maskUnits="userSpaceOnUse" style="mask-type:luminance"><path fill="#fff" d="m19.772 9.775-3.24 5.052c-.156.24-.405.406-.686.452l-6.36 1.073a1.017 1.017 0 0 0-.58 1.69l4.838 5.277c.2.219.296.515.259.808l-.83 6.855a1.017 1.017 0 0 0 1.431 1.048l5.599-2.56c.268-.122.577-.122.845 0l5.589 2.56a1.016 1.016 0 0 0 1.431-1.048l-.83-6.855a1.02 1.02 0 0 1 .26-.808l4.836-5.277a1.017 1.017 0 0 0-.58-1.69l-6.356-1.073a1 1 0 0 1-.686-.455l-3.234-5.05a1.017 1.017 0 0 0-1.712 0z"/></mask><g mask="url(#a)"><path fill="#fff" d="m19.772 9.775-3.24 5.052c-.156.24-.405.406-.686.452l-6.36 1.073a1.017 1.017 0 0 0-.58 1.69l4.838 5.277c.2.219.296.515.259.808l-.83 6.855a1.017 1.017 0 0 0 1.431 1.048l5.599-2.56c.268-.122.577-.122.845 0l5.589 2.56a1.016 1.016 0 0 0 1.431-1.048l-.83-6.855a1.02 1.02 0 0 1 .26-.808l4.836-5.277a1.017 1.017 0 0 0-.58-1.69l-6.356-1.073a1 1 0 0 1-.686-.455l-3.234-5.05a1.017 1.017 0 0 0-1.712 0z"/><path fill="#FFEDBC" d="m23.733 32.23-3.918 2.834a.77.77 0 0 1-.42.147l-9.154.418a.78.78 0 0 1-.786-.568l-2.407-8.608L4.275 15.85a.78.78 0 0 1 .577-.957l12.465-2.926a.78.78 0 0 1 .836.34l3.82 5.963a.79.79 0 0 0 .528.35l2.782.47a.782.782 0 0 1 .446 1.298l-2.427 2.644a.78.78 0 0 0-.2.621l.949 7.853a.78.78 0 0 1-.318.726z"/><path fill="#FFCA62" fill-rule="evenodd" d="M20.244 15.257a.553.553 0 0 1 .066.78l-1.531 1.814c-.271.403-.693.68-1.174.768l-2.378.595a.553.553 0 0 1-.269-1.074l2.398-.6.041-.008a.7.7 0 0 0 .472-.312 1 1 0 0 1 .043-.057l1.552-1.84a.553.553 0 0 1 .78-.066" clip-rule="evenodd"/><path stroke="#E8A013" stroke-linecap="round" stroke-linejoin="round" stroke-width="2.4" d="m19.772 9.775-3.24 5.052c-.156.24-.405.406-.686.452l-6.36 1.073a1.017 1.017 0 0 0-.58 1.69l4.838 5.277c.2.219.296.515.259.808l-.83 6.855a1.017 1.017 0 0 0 1.431 1.048l5.599-2.56c.268-.122.577-.122.845 0l5.589 2.56a1.016 1.016 0 0 0 1.431-1.048l-.83-6.855a1.02 1.02 0 0 1 .26-.808l4.836-5.277a1.017 1.017 0 0 0-.58-1.69l-6.356-1.073a1 1 0 0 1-.686-.455l-3.234-5.05a1.017 1.017 0 0 0-1.712 0z"/></g><path fill="#E8A013" fill-rule="evenodd" d="M7.553 27.422a.55.55 0 0 1 .219-.363l3.269-2.409a.553.553 0 0 1 .78.765l-2.465 3.49a.553.553 0 0 1-.897.011l-.803-1.082a.55.55 0 0 1-.103-.412m1.34.221.052-.075-.07.052zM33.447 27.422a.55.55 0 0 0-.219-.363L29.96 24.65a.553.553 0 0 0-.78.765l2.465 3.49a.553.553 0 0 0 .897.011l.803-1.082a.55.55 0 0 0 .103-.412m-1.34.221-.052-.075.07.052zM12.298 8.941a.553.553 0 0 1 .755.203l2.03 3.508a.553.553 0 0 1-.845.692l-3.2-2.835a.553.553 0 0 1 .09-.894zm.05 1.25.067.06-.043-.075zM28.4 8.941a.553.553 0 0 0-.756.203l-2.03 3.508a.553.553 0 0 0 .845.692l3.2-2.835a.553.553 0 0 0-.09-.894zm-.05 1.25-.068.06.043-.075z" clip-rule="evenodd"/></svg>