<svg xmlns="http://www.w3.org/2000/svg" width="28" height="28" fill="none" viewBox="0 0 28 28"><g clip-path="url(#a)"><path fill="#55B0CE" d="M10.144 24.88a5.309 5.309 0 1 1-4.56-7.495 5.2 5.2 0 0 1 2.784.965 5.29 5.29 0 0 1 1.776 6.53"/><path fill="#fff" fill-opacity=".8" d="M3.316 22.21a.965.965 0 1 0 0-1.93.965.965 0 0 0 0 1.93"/><path fill="#70BB85" d="M27.523 24.88a5.309 5.309 0 1 1-9.667-4.392 5.309 5.309 0 1 1 9.667 4.392"/><path fill="#fff" fill-opacity=".8" d="M21.25 26.062a.965.965 0 1 0 0-1.93.965.965 0 0 0 0 1.93"/><path fill="#9CC8DF" d="M22.379 20.652c-.22.126-.47.193-.724.193a1.43 1.43 0 0 1-1.25-.724l-.95-1.646-4.581-7.93A5.26 5.26 0 0 0 17.5 9.302l4.676 8.098.734 1.274a1.45 1.45 0 0 1-.531 1.979M17.582 24.132H9.656a1.448 1.448 0 1 1 0-2.896h7.924c-.27.946-.27 1.95 0 2.896"/><path fill="#E67B7B" d="M19.31 5.31A5.31 5.31 0 0 1 14 10.617a5.309 5.309 0 1 1 5.31-5.309"/><path fill="#fff" fill-opacity=".8" d="M14.483 3.861a.965.965 0 1 0 0-1.93.965.965 0 0 0 0 1.93"/><path fill="#9CC8DF" d="M13.875 8.794q-.03.069-.068.135l-.907 1.573-4.527 7.843-.005.005a5.196 5.196 0 0 0-2.785-.965v-.005l4.749-8.23.965-1.669a1.45 1.45 0 0 1 1.979-.53c.639.372.896 1.165.598 1.843"/></g><defs><clipPath id="a"><path fill="#fff" d="M0 0h28v28H0z"/></clipPath></defs></svg>