<svg xmlns="http://www.w3.org/2000/svg" width="40" height="41" fill="none" viewBox="0 0 40 41"><rect width="39" height="39" x=".5" y="1.368" stroke="#D0E4F1" rx="3.5"/><path fill="#fff" d="M30.158 11.833h2.548v20.326H20l9.754-2.437a.53.53 0 0 0 .405-.519z"/><path fill="#1960CA" fill-rule="evenodd" d="M29.56 11.832a.6.6 0 0 1 .6-.6h2.548a.6.6 0 0 1 .6.6v20.326a.6.6 0 0 1-.6.6H20a.6.6 0 0 1-.145-1.182l9.704-2.424zm1.2.6v16.77c0 .52-.354.976-.86 1.102h-.001l-5.022 1.255h7.23V12.432z" clip-rule="evenodd"/><path fill="#B8D1F5" d="M19.999 12.251v19.907z"/><path stroke="#1960CA" stroke-linecap="round" stroke-linejoin="round" stroke-width=".586" d="M19.999 12.251v19.907"/><path fill="#B8D1F5" d="m19.999 32.159 10.159-2.54V9.293l-9.755 2.437a.53.53 0 0 0-.404.519"/><path fill="#1960CA" fill-rule="evenodd" d="M30.528 8.82a.6.6 0 0 1 .23.473v20.326a.6.6 0 0 1-.454.582l-10.159 2.54a.6.6 0 0 1-.291-1.165l9.704-2.425V10.06l-8.96 2.24a.6.6 0 0 1-1.198-.053c0-.52.352-.975.859-1.1h.001l9.753-2.437a.6.6 0 0 1 .514.109" clip-rule="evenodd"/><path fill="#669BE9" fill-rule="evenodd" d="M28.59 15.08a.6.6 0 0 1-.436.727l-5.858 1.464a.6.6 0 0 1-.292-1.164l5.859-1.464a.6.6 0 0 1 .727.436M28.59 18.893a.6.6 0 0 1-.436.727l-5.858 1.465a.6.6 0 1 1-.292-1.164l5.859-1.465a.6.6 0 0 1 .727.437M25.661 23.547a.6.6 0 0 1-.436.728l-2.929.735a.6.6 0 1 1-.292-1.164l2.93-.735a.6.6 0 0 1 .727.436" clip-rule="evenodd"/><path fill="#B8D1F5" d="M8.566 11.833h10.897c.296 0 .536.24.536.536v19.254c0 .296-.24.536-.536.536H8.566z"/><path fill="#1960CA" fill-rule="evenodd" d="M7.967 11.832a.6.6 0 0 1 .6-.6h10.897c.627 0 1.136.51 1.136 1.136v19.254c0 .628-.51 1.136-1.136 1.136H8.567a.6.6 0 0 1-.6-.6zm1.2.6V31.56H19.4V12.432z" clip-rule="evenodd"/><path fill="#669BE9" fill-rule="evenodd" d="M10.91 14.405a.6.6 0 0 1 .6.6v14.552a.6.6 0 0 1-1.2 0V15.005a.6.6 0 0 1 .6-.6" clip-rule="evenodd"/></svg>